<?xml version="1.0" encoding="UTF-8" standalone="no"?>
<!-- Created with Inkscape (http://www.inkscape.org/) -->

<svg
   width="141.11856mm"
   height="23.680204mm"
   viewBox="0 0 141.11856 23.680204"
   version="1.1"
   id="svg5"
   inkscape:version="1.2.1 (9c6d41e410, 2022-07-14)"
   sodipodi:docname="Powerbrain_Logo_Blue_Latest.svg"
   xmlns:inkscape="http://www.inkscape.org/namespaces/inkscape"
   xmlns:sodipodi="http://sodipodi.sourceforge.net/DTD/sodipodi-0.dtd"
   xmlns="http://www.w3.org/2000/svg"
   xmlns:svg="http://www.w3.org/2000/svg">
  <sodipodi:namedview
     id="namedview7"
     pagecolor="#ffffff"
     bordercolor="#666666"
     borderopacity="1.0"
     inkscape:pageshadow="2"
     inkscape:pageopacity="0.0"
     inkscape:pagecheckerboard="0"
     inkscape:document-units="mm"
     showgrid="false"
     units="mm"
     width="235mm"
     inkscape:zoom="1.5554293"
     inkscape:cx="241.73391"
     inkscape:cy="52.39711"
     inkscape:window-width="2560"
     inkscape:window-height="1362"
     inkscape:window-x="-8"
     inkscape:window-y="-8"
     inkscape:window-maximized="1"
     inkscape:current-layer="text10"
     fit-margin-top="0"
     fit-margin-left="0"
     fit-margin-right="0"
     fit-margin-bottom="0"
     inkscape:showpageshadow="2"
     inkscape:deskcolor="#d1d1d1" />
  <defs
     id="defs2" />
  <g
     inkscape:label="Layer 1"
     inkscape:groupmode="layer"
     id="layer1"
     transform="translate(-0.713835,-115.56711)">
    <g
       aria-label="POWERBRAIN"
       id="text10"
       style="font-weight:600;font-size:13.1286px;font-family:Metropolis-SemiBold, Metropolis;fill:#113458;stroke-width:0.264583"
       class="cls-1">
      <path
         d="m 50.431743,127.64301 q 0,0.64105 -0.224365,1.25645 -0.224366,0.609 -0.641045,1.02567 -0.57053,0.56412 -1.27568,0.85259 -0.698739,0.28847 -1.743642,0.28847 h -1.532097 v 3.10907 h -2.461613 v -9.54516 h 4.051404 q 0.910284,0 1.532097,0.16026 0.628224,0.15386 1.109008,0.46797 0.576941,0.37821 0.878232,0.96798 0.307701,0.58976 0.307701,1.4167 z m -2.544948,0.0577 q 0,-0.40386 -0.217955,-0.69233 -0.217956,-0.29488 -0.506426,-0.41027 -0.384627,-0.15385 -0.750022,-0.16667 -0.365396,-0.0192 -0.974389,-0.0192 h -0.423089 v 2.85906 h 0.705149 q 0.628224,0 1.032082,-0.0769 0.410269,-0.0769 0.685918,-0.3077 0.237187,-0.20513 0.339754,-0.48719 0.108978,-0.28847 0.108978,-0.69874 z"
         style="font-weight:600;font-size:13.1286px;font-family:Metropolis-SemiBold, Metropolis;fill:#113458;stroke-width:0.264583"
         id="path1831" />
      <path
         d="m 60.421359,129.40589 q 0,2.28212 -1.307731,3.62831 -1.307732,1.33979 -3.615494,1.33979 -2.301351,0 -3.609083,-1.33979 -1.307731,-1.34619 -1.307731,-3.62831 0,-2.30135 1.307731,-3.63473 1.307732,-1.33978 3.609083,-1.33978 2.294941,0 3.609083,1.33978 1.314142,1.33338 1.314142,3.63473 z m -3.262918,2.41674 q 0.358985,-0.43591 0.532067,-1.02567 0.173082,-0.59618 0.173082,-1.39748 0,-0.859 -0.198724,-1.46158 -0.198724,-0.60259 -0.519246,-0.97439 -0.326933,-0.38463 -0.756433,-0.55771 -0.42309,-0.17308 -0.884642,-0.17308 -0.467963,0 -0.884642,0.16667 -0.410269,0.16667 -0.756433,0.5513 -0.320523,0.35898 -0.525657,0.99362 -0.198724,0.62822 -0.198724,1.46158 0,0.85259 0.192313,1.45517 0.198724,0.59617 0.519247,0.97439 0.320522,0.37821 0.750022,0.55771 0.4295,0.17949 0.903874,0.17949 0.474373,0 0.903873,-0.17949 0.4295,-0.18591 0.750023,-0.57053 z"
         id="path1833" />
      <path
         d="m 74.64448,124.6301 -2.57059,9.54516 h -2.724441 l -1.71159,-6.21813 -1.666717,6.21813 h -2.724441 l -2.57059,-9.54516 h 2.57059 l 1.467993,6.57071 1.756463,-6.57071 h 2.455202 l 1.673127,6.57071 1.538508,-6.57071 z"
         id="path1835" />
      <path
         d="m 83.189609,134.17526 h -6.904054 v -9.54516 h 6.904054 v 1.84621 h -4.455262 v 1.64749 h 4.13474 v 1.84621 h -4.13474 v 2.35904 h 4.455262 z"
         id="path1837" />
      <path
         d="m 90.6065,127.55327 q 0,-0.35899 -0.14744,-0.6154 -0.147441,-0.25642 -0.506426,-0.40386 -0.250007,-0.10257 -0.583351,-0.1218 -0.333343,-0.0256 -0.775664,-0.0256 h -0.891053 v 2.57059 h 0.756433 q 0.589762,0 0.98721,-0.0577 0.397448,-0.0577 0.666686,-0.26283 0.256418,-0.19872 0.371806,-0.43591 0.121799,-0.24359 0.121799,-0.64745 z m 3.839859,6.62199 h -3.006501 l -2.602642,-3.5001 h -1.13465 v 3.5001 h -2.448791 v -9.54516 h 4.128329 q 0.846179,0 1.455172,0.0962 0.608993,0.0962 1.14106,0.41668 0.538478,0.32052 0.85259,0.83336 0.320522,0.50642 0.320522,1.27568 0,1.05772 -0.493604,1.72441 -0.487194,0.66668 -1.397478,1.10901 z"
         id="path1839" />
      <path
         d="m 103.69023,131.2521 q 0,0.69233 -0.28206,1.23721 -0.27565,0.54489 -0.76285,0.90388 -0.56412,0.42309 -1.24362,0.60258 -0.6731,0.17949 -1.711594,0.17949 h -4.166792 v -9.54516 h 3.705239 q 1.153877,0 1.685947,0.0769 0.53848,0.0769 1.06414,0.33975 0.54488,0.27565 0.80771,0.74361 0.26924,0.46156 0.26924,1.05773 0,0.69233 -0.36539,1.22439 -0.3654,0.52566 -1.03209,0.82054 v 0.0513 q 0.93593,0.1859 1.48082,0.76925 0.5513,0.58335 0.5513,1.53851 z m -3.15394,-3.9232 q 0,-0.23718 -0.1218,-0.47437 -0.11539,-0.23719 -0.416683,-0.35258 -0.269239,-0.10256 -0.673097,-0.10897 -0.397448,-0.0128 -1.121828,-0.0128 h -0.230777 v 2.01929 h 0.384627 q 0.583351,0 0.99362,-0.0192 0.410269,-0.0192 0.647455,-0.12821 0.333343,-0.14744 0.435913,-0.37822 0.10257,-0.23719 0.10257,-0.54489 z m 0.60258,3.88473 q 0,-0.45514 -0.1795,-0.69873 -0.17308,-0.25001 -0.59617,-0.37181 -0.28847,-0.0833 -0.794893,-0.0898 -0.506425,-0.006 -1.057724,-0.006 h -0.538478 v 2.37828 h 0.179493 q 1.038493,0 1.487224,-0.006 0.448728,-0.006 0.826948,-0.16667 0.38463,-0.16026 0.52566,-0.42309 0.14744,-0.26924 0.14744,-0.61541 z"
         id="path1841" />
      <path
         d="m 110.87634,127.55327 q 0,-0.35899 -0.14744,-0.6154 -0.14744,-0.25642 -0.50643,-0.40386 -0.25,-0.10257 -0.58335,-0.1218 -0.33334,-0.0256 -0.77566,-0.0256 h -0.89105 v 2.57059 h 0.75643 q 0.58976,0 0.98721,-0.0577 0.39745,-0.0577 0.66669,-0.26283 0.25641,-0.19872 0.3718,-0.43591 0.1218,-0.24359 0.1218,-0.64745 z m 3.83986,6.62199 h -3.0065 l -2.60264,-3.5001 h -1.13465 v 3.5001 h -2.44879 v -9.54516 h 4.12832 q 0.84618,0 1.45518,0.0962 0.60899,0.0962 1.14106,0.41668 0.53847,0.32052 0.85259,0.83336 0.32052,0.50642 0.32052,1.27568 0,1.05772 -0.49361,1.72441 -0.48719,0.66668 -1.39747,1.10901 z"
         id="path1843" />
      <path
         d="m 124.61393,134.17526 h -2.54495 l -0.66027,-1.92954 h -3.53857 l -0.66028,1.92954 h -2.48084 l 3.52575,-9.54516 h 2.83342 z m -3.80139,-3.6796 -1.17312,-3.42318 -1.17311,3.42318 z"
         id="path1845" />
      <path
         d="m 131.14618,134.17526 h -5.58991 v -1.69236 h 1.56415 v -6.16044 h -1.56415 v -1.69236 h 5.58991 v 1.69236 h -1.56415 v 6.16044 h 1.56415 z"
         id="path1847" />
      <path
         d="m 141.8324,134.17526 h -2.37187 l -4.0514,-6.55148 v 6.55148 h -2.25648 v -9.54516 h 2.94239 l 3.48088,5.46812 v -5.46812 h 2.25648 z"
         id="path1849" />
    </g>
    <polygon
       class="cls-3"
       points="516.18,43.41 516.18,66.23 555.63,66.23 555.63,37.73 516.18,37.73 "
       id="polygon12"
       style="fill:none"
       transform="matrix(0.26458333,0,0,0.26458333,-131.57783,114.4638)" />
    <path
       class="cls-4"
       d="M 15.443189,120.90905 H 3.9893766 a 3.2808333,3.2808333 0 0 0 -3.2755416,3.27554 v 13.29531 a 1.7674166,1.7674166 0 0 0 3.5348333,0 v -1.95527 H 15.443189 a 3.2808333,3.2808333 0 0 0 3.278187,-3.27554 v -8.0645 a 3.2808333,3.2808333 0 0 0 -3.278187,-3.27554 z m 0,11.0781 H 4.9947933 v -7.54062 H 15.432606 Z"
       id="path14"
       style="fill:#113559;stroke-width:0.264583" />
    <path
       class="cls-4"
       d="M 33.945501,131.84163 H 23.010272 v -7.54327 h 9.752542 l 3.01625,-3.13266 a 3.2517291,3.2517291 0 0 0 -1.574271,-0.40217 H 23.010272 v -1.95527 a 1.7674166,1.7674166 0 1 0 -3.534833,0 v 13.29266 a 3.2781875,3.2781875 0 0 0 3.275542,3.27555 h 11.453812 a 3.2808333,3.2808333 0 0 0 3.286125,-3.27555 v -8.06185 a 3.2385,3.2385 0 0 0 -0.224896,-1.18004 l -3.320521,2.14842 z"
       id="path16"
       style="fill:#113559;stroke-width:0.264583" />
    <polygon
       class="cls-5"
       points="611.59,44.55 625.84,24.04 616.11,20.24 647.64,4.17 633.83,21.36 643.01,24.19 "
       id="polygon18"
       style="fill:#fed900"
       transform="matrix(0.26458333,0,0,0.26458333,-131.57783,114.4638)" />
  </g>
</svg>
